<mxfile host="app.diagrams.net" modified="2023-08-10T05:45:54.072Z" agent="Mozilla/5.0 (Macintosh; Intel Mac OS X 10_15_7) AppleWebKit/605.1.15 (KHTML, like Gecko) Version/15.3 Safari/605.1.15" etag="XZliW3RTxBeJeRpH8qIL" version="21.6.2" type="github">
  <diagram id="C5RBs43oDa-KdzZeNtuy" name="Page-1">
    <mxGraphModel dx="2203" dy="1950" grid="1" gridSize="10" guides="1" tooltips="1" connect="1" arrows="1" fold="1" page="1" pageScale="1" pageWidth="827" pageHeight="1169" math="0" shadow="0">
      <root>
        <mxCell id="WIyWlLk6GJQsqaUBKTNV-0" />
        <mxCell id="WIyWlLk6GJQsqaUBKTNV-1" parent="WIyWlLk6GJQsqaUBKTNV-0" />
        <mxCell id="v7MFKuo2Oexno_NfLRpl-0" value="&lt;h1&gt;QueryCustomerTags&lt;/h1&gt;&lt;p&gt;user -》 tags&lt;/p&gt;&lt;p&gt;1) Tag_AGG&lt;/p&gt;&lt;p&gt;返回的字段多，耗时比较长&lt;/p&gt;&lt;p&gt;&lt;br&gt;&lt;/p&gt;&lt;p&gt;redis&lt;/p&gt;&lt;p&gt;cid -&amp;gt; &amp;nbsp;{[]}&lt;/p&gt;&lt;p&gt;&lt;br&gt;&lt;/p&gt;&lt;p&gt;query redis&lt;/p&gt;&lt;p&gt;&lt;span style=&quot;&quot;&gt;&lt;span style=&quot;&quot;&gt;&amp;nbsp;&amp;nbsp;&amp;nbsp;&amp;nbsp;&lt;/span&gt;not exist&lt;/span&gt;&lt;br&gt;&lt;/p&gt;&lt;p&gt;&lt;span style=&quot;&quot;&gt;&lt;span style=&quot;&quot;&gt;&lt;span style=&quot;&quot;&gt;&amp;nbsp;&amp;nbsp;&amp;nbsp;&amp;nbsp;&lt;/span&gt;&lt;span style=&quot;&quot;&gt;&lt;span style=&quot;&quot;&gt;&amp;nbsp;&amp;nbsp;&amp;nbsp;&amp;nbsp;&lt;/span&gt;query db&lt;/span&gt;&lt;/span&gt;&lt;br&gt;&lt;/span&gt;&lt;/p&gt;&lt;p&gt;&lt;span style=&quot;&quot;&gt;&lt;span style=&quot;&quot;&gt;&lt;span style=&quot;&quot;&gt;&lt;span style=&quot;&quot;&gt;&lt;span style=&quot;&quot;&gt;&amp;nbsp;&amp;nbsp;&amp;nbsp;&amp;nbsp;&lt;/span&gt;&lt;span style=&quot;&quot;&gt;&lt;span style=&quot;&quot;&gt;&amp;nbsp;&amp;nbsp;&amp;nbsp;&amp;nbsp;&lt;/span&gt;send refresh redis kafka, type=query&lt;/span&gt;&lt;/span&gt;&lt;/span&gt;&lt;/span&gt;&lt;/span&gt;&lt;/p&gt;&lt;p&gt;&lt;br&gt;&lt;/p&gt;&lt;p&gt;refresh redis job&lt;/p&gt;&lt;p&gt;&lt;span style=&quot;&quot;&gt;&lt;span style=&quot;&quot;&gt;&amp;nbsp;&amp;nbsp;&amp;nbsp;&amp;nbsp;&lt;/span&gt;query agg delta data&lt;/span&gt;&lt;br&gt;&lt;/p&gt;&lt;p&gt;&lt;span style=&quot;&quot;&gt;&lt;/span&gt;&lt;span style=&quot;&quot;&gt;&amp;nbsp; &amp;nbsp; send refresh redis kafka, type=update&lt;/span&gt;&lt;/p&gt;&lt;p&gt;&lt;span style=&quot;&quot;&gt;&lt;br&gt;&lt;/span&gt;&lt;/p&gt;&lt;p&gt;api upsert/delete&lt;/p&gt;&lt;p&gt;&amp;nbsp; &amp;nbsp; &amp;nbsp; send refresh redis kafka, type=upsert&lt;br&gt;&lt;/p&gt;&lt;p&gt;&lt;span style=&quot;&quot;&gt;&lt;span style=&quot;&quot;&gt;&lt;br&gt;&lt;/span&gt;&lt;/span&gt;&lt;/p&gt;&lt;p&gt;&lt;span style=&quot;&quot;&gt;&lt;span style=&quot;&quot;&gt;&lt;br&gt;&lt;/span&gt;&lt;/span&gt;&lt;/p&gt;&lt;p&gt;&lt;span style=&quot;&quot;&gt;&lt;span style=&quot;&quot;&gt;refresh handler&lt;/span&gt;&lt;/span&gt;&lt;/p&gt;&lt;p&gt;&lt;span style=&quot;&quot;&gt;&lt;span style=&quot;&quot;&gt;&amp;nbsp; &amp;nbsp; &amp;nbsp;case 1:&lt;/span&gt;&lt;/span&gt;&lt;/p&gt;&lt;p&gt;&lt;span style=&quot;&quot;&gt;&lt;span style=&quot;&quot;&gt;&lt;span style=&quot;&quot;&gt;&lt;span style=&quot;&quot;&gt;&amp;nbsp;&amp;nbsp;&amp;nbsp;&amp;nbsp;&lt;/span&gt;&lt;span style=&quot;&quot;&gt;&lt;span style=&quot;&quot;&gt;&amp;nbsp;&amp;nbsp;&amp;nbsp;&amp;nbsp;&lt;/span&gt;&lt;/span&gt;&lt;/span&gt;&lt;/span&gt;&lt;/span&gt;&lt;/p&gt;type=update&lt;br&gt;&amp;nbsp; &amp;nbsp; &amp;nbsp;redis exist --&amp;gt; refresh&lt;br&gt;&lt;br&gt;type=query&lt;br&gt;&lt;span style=&quot;&quot;&gt;&lt;span style=&quot;&quot;&gt;&amp;nbsp;&amp;nbsp;&amp;nbsp;&amp;nbsp;&lt;/span&gt;refresh&lt;br&gt;&lt;/span&gt;&lt;br&gt;&lt;br&gt;&lt;p&gt;&lt;span style=&quot;&quot;&gt;&lt;span style=&quot;&quot;&gt;&amp;nbsp; &amp;nbsp; &amp;nbsp;case 2: &amp;nbsp; &amp;nbsp;&lt;/span&gt;&lt;br&gt;&lt;/span&gt;&lt;/p&gt;&lt;p&gt;type=update&lt;br&gt;&lt;/p&gt;&lt;p&gt;&lt;br&gt;&lt;/p&gt;&lt;p&gt;&lt;br&gt;&lt;/p&gt;&lt;p&gt;&lt;br&gt;&lt;/p&gt;&lt;p&gt;&lt;br&gt;&lt;/p&gt;" style="text;html=1;strokeColor=none;fillColor=none;spacing=5;spacingTop=-20;whiteSpace=wrap;overflow=hidden;rounded=0;" parent="WIyWlLk6GJQsqaUBKTNV-1" vertex="1">
          <mxGeometry x="790" y="20" width="490" height="840" as="geometry" />
        </mxCell>
        <mxCell id="v7MFKuo2Oexno_NfLRpl-1" value="&lt;h1&gt;Target Group Deliver&lt;/h1&gt;&lt;p&gt;1) Target Group -&amp;gt; multiple channel, 同步中，不能被其同步其他渠道的删除了数据&lt;/p&gt;&lt;p&gt;2) JVM Size (multiple Target groups deliver)， 限制查询的并发&lt;/p&gt;&lt;p&gt;3) step:&lt;/p&gt;&lt;p&gt;&lt;span style=&quot;white-space: pre;&quot;&gt;&#x9;&lt;/span&gt;a: stage table (serial)&lt;/p&gt;&lt;p&gt;&lt;span style=&quot;white-space: pre;&quot;&gt;&#x9;b: stage table to target table ( distribute task, rn rage )&lt;/span&gt;&lt;br&gt;&lt;/p&gt;" style="text;html=1;strokeColor=none;fillColor=none;spacing=5;spacingTop=-20;whiteSpace=wrap;overflow=hidden;rounded=0;" parent="WIyWlLk6GJQsqaUBKTNV-1" vertex="1">
          <mxGeometry x="60" y="-120" width="450" height="220" as="geometry" />
        </mxCell>
        <mxCell id="v7MFKuo2Oexno_NfLRpl-2" value="&lt;h1&gt;QueryCustomerByTags&lt;/h1&gt;&lt;p&gt;Tag -&amp;gt; user&lt;/p&gt;&lt;p&gt;&lt;br&gt;&lt;/p&gt;&lt;p&gt;1) Tag input&lt;/p&gt;&lt;p&gt;2) Tag calculation&lt;/p&gt;&lt;p&gt;&lt;br&gt;&lt;/p&gt;&lt;p&gt;tag input to bitmap union tag calculation&amp;nbsp;&lt;/p&gt;&lt;p&gt;page&lt;/p&gt;&lt;p&gt;&lt;br&gt;&lt;/p&gt;&lt;p&gt;4.5s&lt;/p&gt;&lt;p&gt;&lt;br&gt;&lt;/p&gt;&lt;p&gt;&lt;br&gt;&lt;/p&gt;&lt;p&gt;&lt;br&gt;&lt;/p&gt;&lt;p&gt;&lt;br&gt;&lt;/p&gt;" style="text;html=1;strokeColor=none;fillColor=none;spacing=5;spacingTop=-20;whiteSpace=wrap;overflow=hidden;rounded=0;" parent="WIyWlLk6GJQsqaUBKTNV-1" vertex="1">
          <mxGeometry x="1010" y="550" width="440" height="280" as="geometry" />
        </mxCell>
        <mxCell id="jc-Ej8lbmbuaNY_GtRM3-0" value="&lt;h1&gt;Target group delivery &amp;nbsp;Adobe&lt;/h1&gt;&lt;p&gt;&lt;br&gt;&lt;/p&gt;&lt;p&gt;partition num&lt;/p&gt;&lt;p&gt;partition id pool&lt;/p&gt;&lt;p&gt;&lt;br&gt;&lt;/p&gt;&lt;p&gt;redis list&lt;/p&gt;&lt;p&gt;pop&lt;/p&gt;&lt;p&gt;push&lt;/p&gt;&lt;p&gt;&lt;br&gt;&lt;/p&gt;&lt;p&gt;&lt;br&gt;&lt;/p&gt;&lt;p&gt;pod --&amp;gt; partition id pool&lt;/p&gt;&lt;p&gt;&lt;br&gt;&lt;/p&gt;&lt;p&gt;&lt;br&gt;&lt;/p&gt;&lt;p&gt;&lt;br&gt;&lt;/p&gt;&lt;p&gt;&lt;br&gt;&lt;/p&gt;&lt;p&gt;&lt;br&gt;&lt;/p&gt;&lt;p&gt;pod start&lt;/p&gt;&lt;p&gt;exist partition pool key&lt;/p&gt;&lt;p&gt;&amp;nbsp; &amp;nbsp; not exist:&lt;/p&gt;&lt;p&gt;&lt;span style=&quot;white-space: pre;&quot;&gt;&#x9;init&lt;/span&gt;&lt;br&gt;&lt;/p&gt;&lt;p&gt;&lt;span style=&quot;white-space: pre;&quot;&gt;&amp;nbsp;   exist :&lt;/span&gt;&lt;/p&gt;&lt;p&gt;&lt;br&gt;&lt;/p&gt;&lt;p&gt;&lt;br&gt;&lt;/p&gt;&lt;p&gt;&lt;br&gt;&lt;/p&gt;&lt;p&gt;&lt;br&gt;&lt;/p&gt;&lt;p&gt;&lt;br&gt;&lt;/p&gt;&lt;p&gt;&lt;br&gt;&lt;/p&gt;&lt;p&gt;&lt;br&gt;&lt;/p&gt;&lt;p&gt;&lt;br&gt;&lt;/p&gt;&lt;p&gt;&lt;br&gt;&lt;/p&gt;&lt;p&gt;&lt;br&gt;&lt;/p&gt;&lt;p&gt;&lt;br&gt;&lt;/p&gt;" style="text;html=1;strokeColor=none;fillColor=none;spacing=5;spacingTop=-20;whiteSpace=wrap;overflow=hidden;rounded=0;" parent="WIyWlLk6GJQsqaUBKTNV-1" vertex="1">
          <mxGeometry x="-50" y="950" width="400" height="660" as="geometry" />
        </mxCell>
        <mxCell id="qFu9IyAaj8nhZ0rDnuPP-0" value="&lt;h1&gt;adobe delivery&lt;/h1&gt;&lt;p&gt;state table list: 0-31&lt;/p&gt;&lt;p&gt;max parallelism 32&lt;/p&gt;&lt;p&gt;target group job: adjust parallelism by records, 100w - 1 stage table, 200w - 2&lt;/p&gt;&lt;p&gt;&lt;br&gt;&lt;/p&gt;&lt;p&gt;available stage table pool (0,1 ... 31)&amp;nbsp;&lt;/p&gt;&lt;p&gt;&lt;br&gt;&lt;/p&gt;&lt;p&gt;fair strategy： FIFO&lt;/p&gt;&lt;p&gt;&lt;br&gt;&lt;/p&gt;&lt;p&gt;&lt;br&gt;&lt;/p&gt;&lt;p&gt;states: &amp;nbsp;target stage table list&lt;/p&gt;&lt;p&gt;&lt;br&gt;&lt;/p&gt;&lt;p&gt;partiton mums = n*stage table&lt;/p&gt;&lt;p&gt;&lt;br&gt;&lt;/p&gt;&lt;p&gt;&lt;br&gt;&lt;/p&gt;&lt;p&gt;&lt;br&gt;&lt;/p&gt;" style="text;html=1;strokeColor=none;fillColor=none;spacing=5;spacingTop=-20;whiteSpace=wrap;overflow=hidden;rounded=0;" vertex="1" parent="WIyWlLk6GJQsqaUBKTNV-1">
          <mxGeometry x="-90" y="1640" width="450" height="430" as="geometry" />
        </mxCell>
        <mxCell id="qFu9IyAaj8nhZ0rDnuPP-1" value="queryTargetGroupServices" style="rounded=0;whiteSpace=wrap;html=1;" vertex="1" parent="WIyWlLk6GJQsqaUBKTNV-1">
          <mxGeometry x="-80" y="2240" width="160" height="60" as="geometry" />
        </mxCell>
        <mxCell id="qFu9IyAaj8nhZ0rDnuPP-2" value="queryTargetInfo" style="rounded=0;whiteSpace=wrap;html=1;fillColor=#f5f5f5;fontColor=#333333;strokeColor=#666666;" vertex="1" parent="WIyWlLk6GJQsqaUBKTNV-1">
          <mxGeometry x="200" y="2168" width="120" height="60" as="geometry" />
        </mxCell>
        <mxCell id="qFu9IyAaj8nhZ0rDnuPP-3" value="queryTargetGroupDetail" style="rounded=0;whiteSpace=wrap;html=1;fillColor=#ffe6cc;strokeColor=#d79b00;" vertex="1" parent="WIyWlLk6GJQsqaUBKTNV-1">
          <mxGeometry x="200" y="2278" width="120" height="60" as="geometry" />
        </mxCell>
        <mxCell id="qFu9IyAaj8nhZ0rDnuPP-4" value="queryTargetGroupDetail" style="rounded=0;whiteSpace=wrap;html=1;fillColor=#ffe6cc;strokeColor=#d79b00;" vertex="1" parent="WIyWlLk6GJQsqaUBKTNV-1">
          <mxGeometry x="200" y="2390" width="120" height="60" as="geometry" />
        </mxCell>
        <mxCell id="qFu9IyAaj8nhZ0rDnuPP-5" value="itemType_1, cpuTime,memMB, p1,p2,p3,p4,p5,p7,avgCpuTime, querytStatment&lt;br&gt;itemType_2,cpuTime,memMB,&amp;nbsp;querytStatment&lt;br&gt;&lt;br&gt;&lt;br&gt;service, cpuTime,memMB" style="rounded=0;whiteSpace=wrap;html=1;" vertex="1" parent="WIyWlLk6GJQsqaUBKTNV-1">
          <mxGeometry x="420" y="2270" width="480" height="112" as="geometry" />
        </mxCell>
        <mxCell id="qFu9IyAaj8nhZ0rDnuPP-6" value="itemtType_1" style="text;html=1;strokeColor=none;fillColor=none;align=center;verticalAlign=middle;whiteSpace=wrap;rounded=0;" vertex="1" parent="WIyWlLk6GJQsqaUBKTNV-1">
          <mxGeometry x="130" y="2293" width="60" height="30" as="geometry" />
        </mxCell>
        <mxCell id="qFu9IyAaj8nhZ0rDnuPP-7" value="itemType_2" style="text;html=1;strokeColor=none;fillColor=none;align=center;verticalAlign=middle;whiteSpace=wrap;rounded=0;" vertex="1" parent="WIyWlLk6GJQsqaUBKTNV-1">
          <mxGeometry x="130" y="2405" width="60" height="30" as="geometry" />
        </mxCell>
        <mxCell id="qFu9IyAaj8nhZ0rDnuPP-8" value="" style="rounded=0;whiteSpace=wrap;html=1;" vertex="1" parent="WIyWlLk6GJQsqaUBKTNV-1">
          <mxGeometry x="190" y="2630" width="250" height="150" as="geometry" />
        </mxCell>
        <mxCell id="qFu9IyAaj8nhZ0rDnuPP-9" value="hash" style="text;html=1;strokeColor=none;fillColor=none;align=center;verticalAlign=middle;whiteSpace=wrap;rounded=0;" vertex="1" parent="WIyWlLk6GJQsqaUBKTNV-1">
          <mxGeometry x="250" y="2630" width="60" height="30" as="geometry" />
        </mxCell>
        <mxCell id="qFu9IyAaj8nhZ0rDnuPP-10" value="uuid -&amp;gt; &amp;nbsp;get resource num, time" style="text;html=1;strokeColor=none;fillColor=none;align=center;verticalAlign=middle;whiteSpace=wrap;rounded=0;" vertex="1" parent="WIyWlLk6GJQsqaUBKTNV-1">
          <mxGeometry x="200" y="2675" width="200" height="25" as="geometry" />
        </mxCell>
        <mxCell id="qFu9IyAaj8nhZ0rDnuPP-11" value="CDP" style="rounded=0;whiteSpace=wrap;html=1;" vertex="1" parent="WIyWlLk6GJQsqaUBKTNV-1">
          <mxGeometry x="-70" y="370" width="120" height="60" as="geometry" />
        </mxCell>
        <mxCell id="qFu9IyAaj8nhZ0rDnuPP-12" value="" style="rounded=0;whiteSpace=wrap;html=1;" vertex="1" parent="WIyWlLk6GJQsqaUBKTNV-1">
          <mxGeometry x="280" y="270" width="170" height="290" as="geometry" />
        </mxCell>
        <mxCell id="qFu9IyAaj8nhZ0rDnuPP-13" value="Stage_01" style="rounded=1;whiteSpace=wrap;html=1;" vertex="1" parent="WIyWlLk6GJQsqaUBKTNV-1">
          <mxGeometry x="290" y="295" width="90" height="30" as="geometry" />
        </mxCell>
        <mxCell id="qFu9IyAaj8nhZ0rDnuPP-14" value="Stage_02" style="rounded=1;whiteSpace=wrap;html=1;" vertex="1" parent="WIyWlLk6GJQsqaUBKTNV-1">
          <mxGeometry x="290" y="340" width="90" height="30" as="geometry" />
        </mxCell>
        <mxCell id="qFu9IyAaj8nhZ0rDnuPP-15" value="Stage_31" style="rounded=1;whiteSpace=wrap;html=1;" vertex="1" parent="WIyWlLk6GJQsqaUBKTNV-1">
          <mxGeometry x="290" y="440" width="90" height="30" as="geometry" />
        </mxCell>
        <mxCell id="qFu9IyAaj8nhZ0rDnuPP-16" value="01,02,,03,...31" style="ellipse;whiteSpace=wrap;html=1;" vertex="1" parent="WIyWlLk6GJQsqaUBKTNV-1">
          <mxGeometry x="100" y="220" width="120" height="70" as="geometry" />
        </mxCell>
        <mxCell id="qFu9IyAaj8nhZ0rDnuPP-19" value="" style="endArrow=classic;startArrow=classic;html=1;rounded=0;" edge="1" parent="WIyWlLk6GJQsqaUBKTNV-1">
          <mxGeometry width="50" height="50" relative="1" as="geometry">
            <mxPoint x="40" y="330" as="sourcePoint" />
            <mxPoint x="90" y="280" as="targetPoint" />
          </mxGeometry>
        </mxCell>
        <mxCell id="qFu9IyAaj8nhZ0rDnuPP-20" value="01, 31" style="text;html=1;strokeColor=none;fillColor=none;align=center;verticalAlign=middle;whiteSpace=wrap;rounded=0;" vertex="1" parent="WIyWlLk6GJQsqaUBKTNV-1">
          <mxGeometry x="70" y="300" width="60" height="30" as="geometry" />
        </mxCell>
        <mxCell id="qFu9IyAaj8nhZ0rDnuPP-21" value="" style="endArrow=classic;html=1;rounded=0;entryX=0;entryY=0.5;entryDx=0;entryDy=0;" edge="1" parent="WIyWlLk6GJQsqaUBKTNV-1" target="qFu9IyAaj8nhZ0rDnuPP-13">
          <mxGeometry width="50" height="50" relative="1" as="geometry">
            <mxPoint x="80" y="380" as="sourcePoint" />
            <mxPoint x="130" y="330" as="targetPoint" />
          </mxGeometry>
        </mxCell>
        <mxCell id="qFu9IyAaj8nhZ0rDnuPP-22" value="" style="endArrow=classic;html=1;rounded=0;entryX=0;entryY=0.5;entryDx=0;entryDy=0;" edge="1" parent="WIyWlLk6GJQsqaUBKTNV-1" target="qFu9IyAaj8nhZ0rDnuPP-15">
          <mxGeometry width="50" height="50" relative="1" as="geometry">
            <mxPoint x="90" y="400" as="sourcePoint" />
            <mxPoint x="140" y="350" as="targetPoint" />
          </mxGeometry>
        </mxCell>
        <mxCell id="qFu9IyAaj8nhZ0rDnuPP-23" value="state&lt;br&gt;group_id, status, &amp;nbsp;stage_table_list" style="rounded=1;whiteSpace=wrap;html=1;" vertex="1" parent="WIyWlLk6GJQsqaUBKTNV-1">
          <mxGeometry x="288" y="500" width="126" height="50" as="geometry" />
        </mxCell>
        <mxCell id="qFu9IyAaj8nhZ0rDnuPP-24" value="1001, &amp;nbsp;S, &quot;stage_01, stage_31&quot;&lt;br&gt;&lt;br&gt;&lt;br&gt;index" style="text;html=1;strokeColor=none;fillColor=none;align=center;verticalAlign=middle;whiteSpace=wrap;rounded=0;" vertex="1" parent="WIyWlLk6GJQsqaUBKTNV-1">
          <mxGeometry x="275" y="600" width="235" height="80" as="geometry" />
        </mxCell>
        <mxCell id="qFu9IyAaj8nhZ0rDnuPP-25" value="" style="endArrow=classic;html=1;rounded=0;" edge="1" parent="WIyWlLk6GJQsqaUBKTNV-1">
          <mxGeometry width="50" height="50" relative="1" as="geometry">
            <mxPoint x="60" y="440" as="sourcePoint" />
            <mxPoint x="280" y="600" as="targetPoint" />
          </mxGeometry>
        </mxCell>
        <mxCell id="qFu9IyAaj8nhZ0rDnuPP-26" value="parallels&amp;nbsp;" style="text;html=1;strokeColor=none;fillColor=none;align=center;verticalAlign=middle;whiteSpace=wrap;rounded=0;" vertex="1" parent="WIyWlLk6GJQsqaUBKTNV-1">
          <mxGeometry x="120" y="370" width="60" height="30" as="geometry" />
        </mxCell>
        <mxCell id="qFu9IyAaj8nhZ0rDnuPP-27" value="1" style="text;html=1;strokeColor=none;fillColor=none;align=center;verticalAlign=middle;whiteSpace=wrap;rounded=0;" vertex="1" parent="WIyWlLk6GJQsqaUBKTNV-1">
          <mxGeometry x="20" y="290" width="60" height="30" as="geometry" />
        </mxCell>
        <mxCell id="qFu9IyAaj8nhZ0rDnuPP-28" value="1.1" style="text;html=1;strokeColor=none;fillColor=none;align=center;verticalAlign=middle;whiteSpace=wrap;rounded=0;" vertex="1" parent="WIyWlLk6GJQsqaUBKTNV-1">
          <mxGeometry x="140" y="320" width="60" height="30" as="geometry" />
        </mxCell>
        <mxCell id="qFu9IyAaj8nhZ0rDnuPP-29" value="1.2" style="text;html=1;strokeColor=none;fillColor=none;align=center;verticalAlign=middle;whiteSpace=wrap;rounded=0;" vertex="1" parent="WIyWlLk6GJQsqaUBKTNV-1">
          <mxGeometry x="160" y="400" width="60" height="30" as="geometry" />
        </mxCell>
        <mxCell id="qFu9IyAaj8nhZ0rDnuPP-30" value="2" style="text;html=1;strokeColor=none;fillColor=none;align=center;verticalAlign=middle;whiteSpace=wrap;rounded=0;" vertex="1" parent="WIyWlLk6GJQsqaUBKTNV-1">
          <mxGeometry x="120" y="470" width="60" height="30" as="geometry" />
        </mxCell>
        <mxCell id="qFu9IyAaj8nhZ0rDnuPP-31" value="target table" style="rounded=1;whiteSpace=wrap;html=1;" vertex="1" parent="WIyWlLk6GJQsqaUBKTNV-1">
          <mxGeometry x="540" y="395" width="130" height="40" as="geometry" />
        </mxCell>
        <mxCell id="qFu9IyAaj8nhZ0rDnuPP-32" value="" style="endArrow=classic;html=1;rounded=0;dashed=1;" edge="1" parent="WIyWlLk6GJQsqaUBKTNV-1">
          <mxGeometry width="50" height="50" relative="1" as="geometry">
            <mxPoint x="400" y="320" as="sourcePoint" />
            <mxPoint x="530" y="410" as="targetPoint" />
          </mxGeometry>
        </mxCell>
        <mxCell id="qFu9IyAaj8nhZ0rDnuPP-34" value="" style="endArrow=classic;html=1;rounded=0;dashed=1;" edge="1" parent="WIyWlLk6GJQsqaUBKTNV-1">
          <mxGeometry width="50" height="50" relative="1" as="geometry">
            <mxPoint x="390" y="460" as="sourcePoint" />
            <mxPoint x="530" y="420" as="targetPoint" />
          </mxGeometry>
        </mxCell>
        <mxCell id="qFu9IyAaj8nhZ0rDnuPP-36" value="CDP API server" style="rounded=0;whiteSpace=wrap;html=1;" vertex="1" parent="WIyWlLk6GJQsqaUBKTNV-1">
          <mxGeometry x="90" y="2990" width="110" height="60" as="geometry" />
        </mxCell>
        <mxCell id="qFu9IyAaj8nhZ0rDnuPP-37" value="SR" style="shape=cylinder3;whiteSpace=wrap;html=1;boundedLbl=1;backgroundOutline=1;size=15;" vertex="1" parent="WIyWlLk6GJQsqaUBKTNV-1">
          <mxGeometry x="310" y="2990" width="60" height="80" as="geometry" />
        </mxCell>
        <mxCell id="qFu9IyAaj8nhZ0rDnuPP-39" value="" style="endArrow=classic;html=1;rounded=0;" edge="1" parent="WIyWlLk6GJQsqaUBKTNV-1">
          <mxGeometry width="50" height="50" relative="1" as="geometry">
            <mxPoint x="200" y="3030" as="sourcePoint" />
            <mxPoint x="290" y="3030" as="targetPoint" />
          </mxGeometry>
        </mxCell>
        <mxCell id="qFu9IyAaj8nhZ0rDnuPP-45" style="edgeStyle=orthogonalEdgeStyle;rounded=0;orthogonalLoop=1;jettySize=auto;html=1;entryX=0.5;entryY=0;entryDx=0;entryDy=0;entryPerimeter=0;" edge="1" parent="WIyWlLk6GJQsqaUBKTNV-1" source="qFu9IyAaj8nhZ0rDnuPP-40" target="qFu9IyAaj8nhZ0rDnuPP-44">
          <mxGeometry relative="1" as="geometry" />
        </mxCell>
        <mxCell id="qFu9IyAaj8nhZ0rDnuPP-40" value="Adobe backend" style="rounded=0;whiteSpace=wrap;html=1;" vertex="1" parent="WIyWlLk6GJQsqaUBKTNV-1">
          <mxGeometry x="-130" y="2990" width="110" height="60" as="geometry" />
        </mxCell>
        <mxCell id="qFu9IyAaj8nhZ0rDnuPP-41" value="" style="endArrow=classic;html=1;rounded=0;entryX=0;entryY=0.5;entryDx=0;entryDy=0;" edge="1" parent="WIyWlLk6GJQsqaUBKTNV-1" target="qFu9IyAaj8nhZ0rDnuPP-36">
          <mxGeometry width="50" height="50" relative="1" as="geometry">
            <mxPoint x="-20" y="3020" as="sourcePoint" />
            <mxPoint x="30" y="2970" as="targetPoint" />
          </mxGeometry>
        </mxCell>
        <mxCell id="qFu9IyAaj8nhZ0rDnuPP-42" value="" style="endArrow=classic;html=1;rounded=0;" edge="1" parent="WIyWlLk6GJQsqaUBKTNV-1">
          <mxGeometry width="50" height="50" relative="1" as="geometry">
            <mxPoint x="300" y="3049" as="sourcePoint" />
            <mxPoint x="200" y="3049" as="targetPoint" />
          </mxGeometry>
        </mxCell>
        <mxCell id="qFu9IyAaj8nhZ0rDnuPP-43" value="" style="endArrow=classic;html=1;rounded=0;" edge="1" parent="WIyWlLk6GJQsqaUBKTNV-1">
          <mxGeometry width="50" height="50" relative="1" as="geometry">
            <mxPoint x="90" y="3040" as="sourcePoint" />
            <mxPoint x="-10" y="3040" as="targetPoint" />
          </mxGeometry>
        </mxCell>
        <mxCell id="qFu9IyAaj8nhZ0rDnuPP-44" value="Adobe" style="shape=cylinder3;whiteSpace=wrap;html=1;boundedLbl=1;backgroundOutline=1;size=15;" vertex="1" parent="WIyWlLk6GJQsqaUBKTNV-1">
          <mxGeometry x="-105" y="3110" width="60" height="80" as="geometry" />
        </mxCell>
        <mxCell id="qFu9IyAaj8nhZ0rDnuPP-46" value="1" style="text;html=1;strokeColor=none;fillColor=none;align=center;verticalAlign=middle;whiteSpace=wrap;rounded=0;" vertex="1" parent="WIyWlLk6GJQsqaUBKTNV-1">
          <mxGeometry x="10" y="2990" width="60" height="30" as="geometry" />
        </mxCell>
        <mxCell id="qFu9IyAaj8nhZ0rDnuPP-47" value="2" style="text;html=1;strokeColor=none;fillColor=none;align=center;verticalAlign=middle;whiteSpace=wrap;rounded=0;" vertex="1" parent="WIyWlLk6GJQsqaUBKTNV-1">
          <mxGeometry x="215" y="2990" width="60" height="30" as="geometry" />
        </mxCell>
        <mxCell id="qFu9IyAaj8nhZ0rDnuPP-48" value="3" style="text;html=1;strokeColor=none;fillColor=none;align=center;verticalAlign=middle;whiteSpace=wrap;rounded=0;" vertex="1" parent="WIyWlLk6GJQsqaUBKTNV-1">
          <mxGeometry x="-120" y="3070" width="60" height="30" as="geometry" />
        </mxCell>
        <mxCell id="qFu9IyAaj8nhZ0rDnuPP-50" style="edgeStyle=orthogonalEdgeStyle;rounded=0;orthogonalLoop=1;jettySize=auto;html=1;entryX=0.5;entryY=0;entryDx=0;entryDy=0;" edge="1" parent="WIyWlLk6GJQsqaUBKTNV-1" source="qFu9IyAaj8nhZ0rDnuPP-49" target="qFu9IyAaj8nhZ0rDnuPP-40">
          <mxGeometry relative="1" as="geometry" />
        </mxCell>
        <mxCell id="qFu9IyAaj8nhZ0rDnuPP-49" value="Adobe front" style="rounded=0;whiteSpace=wrap;html=1;" vertex="1" parent="WIyWlLk6GJQsqaUBKTNV-1">
          <mxGeometry x="-135" y="2850" width="120" height="60" as="geometry" />
        </mxCell>
        <mxCell id="qFu9IyAaj8nhZ0rDnuPP-51" value="" style="endArrow=classic;html=1;rounded=0;" edge="1" parent="WIyWlLk6GJQsqaUBKTNV-1">
          <mxGeometry width="50" height="50" relative="1" as="geometry">
            <mxPoint x="-50" y="2980" as="sourcePoint" />
            <mxPoint x="-50" y="2920" as="targetPoint" />
          </mxGeometry>
        </mxCell>
        <mxCell id="qFu9IyAaj8nhZ0rDnuPP-52" value="4" style="text;html=1;strokeColor=none;fillColor=none;align=center;verticalAlign=middle;whiteSpace=wrap;rounded=0;" vertex="1" parent="WIyWlLk6GJQsqaUBKTNV-1">
          <mxGeometry x="-50" y="2940" width="60" height="30" as="geometry" />
        </mxCell>
        <mxCell id="qFu9IyAaj8nhZ0rDnuPP-54" value="mpcore-pnshk" style="text;html=1;strokeColor=none;fillColor=none;align=center;verticalAlign=middle;whiteSpace=wrap;rounded=0;" vertex="1" parent="WIyWlLk6GJQsqaUBKTNV-1">
          <mxGeometry x="-145" y="3350" width="105" height="30" as="geometry" />
        </mxCell>
        <mxCell id="qFu9IyAaj8nhZ0rDnuPP-55" value="&lt;h1&gt;mpcore-application yaml&lt;/h1&gt;&lt;p&gt;bullish: pnshk, watch,wtcth&lt;/p&gt;&lt;p&gt;&lt;br&gt;&lt;/p&gt;" style="text;html=1;strokeColor=none;fillColor=none;spacing=5;spacingTop=-20;whiteSpace=wrap;overflow=hidden;rounded=0;" vertex="1" parent="WIyWlLk6GJQsqaUBKTNV-1">
          <mxGeometry y="3192.5" width="310" height="120" as="geometry" />
        </mxCell>
        <mxCell id="qFu9IyAaj8nhZ0rDnuPP-56" value="app id: mp" style="text;html=1;strokeColor=none;fillColor=none;align=center;verticalAlign=middle;whiteSpace=wrap;rounded=0;" vertex="1" parent="WIyWlLk6GJQsqaUBKTNV-1">
          <mxGeometry x="-195" y="3177.5" width="60" height="30" as="geometry" />
        </mxCell>
        <mxCell id="qFu9IyAaj8nhZ0rDnuPP-57" value="mpcore-application" style="text;html=1;strokeColor=none;fillColor=none;align=center;verticalAlign=middle;whiteSpace=wrap;rounded=0;" vertex="1" parent="WIyWlLk6GJQsqaUBKTNV-1">
          <mxGeometry x="-150" y="3237.5" width="130" height="30" as="geometry" />
        </mxCell>
        <mxCell id="qFu9IyAaj8nhZ0rDnuPP-58" value="" style="rounded=0;whiteSpace=wrap;html=1;" vertex="1" parent="WIyWlLk6GJQsqaUBKTNV-1">
          <mxGeometry x="-120" y="3700" width="345" height="190" as="geometry" />
        </mxCell>
        <mxCell id="qFu9IyAaj8nhZ0rDnuPP-59" value="GRPC&lt;br&gt;creative" style="rounded=1;whiteSpace=wrap;html=1;" vertex="1" parent="WIyWlLk6GJQsqaUBKTNV-1">
          <mxGeometry x="85" y="3750" width="120" height="50" as="geometry" />
        </mxCell>
        <mxCell id="qFu9IyAaj8nhZ0rDnuPP-60" value="mp-tools" style="text;html=1;strokeColor=none;fillColor=none;align=center;verticalAlign=middle;whiteSpace=wrap;rounded=0;" vertex="1" parent="WIyWlLk6GJQsqaUBKTNV-1">
          <mxGeometry x="20" y="3700" width="60" height="30" as="geometry" />
        </mxCell>
        <mxCell id="qFu9IyAaj8nhZ0rDnuPP-64" style="edgeStyle=orthogonalEdgeStyle;rounded=0;orthogonalLoop=1;jettySize=auto;html=1;" edge="1" parent="WIyWlLk6GJQsqaUBKTNV-1" source="qFu9IyAaj8nhZ0rDnuPP-62" target="qFu9IyAaj8nhZ0rDnuPP-59">
          <mxGeometry relative="1" as="geometry" />
        </mxCell>
        <mxCell id="qFu9IyAaj8nhZ0rDnuPP-62" value="UI API&lt;br&gt;mpsrc" style="rounded=1;whiteSpace=wrap;html=1;" vertex="1" parent="WIyWlLk6GJQsqaUBKTNV-1">
          <mxGeometry x="-90" y="3750" width="120" height="50" as="geometry" />
        </mxCell>
        <mxCell id="qFu9IyAaj8nhZ0rDnuPP-63" value="UI API&lt;br&gt;base materia" style="rounded=1;whiteSpace=wrap;html=1;" vertex="1" parent="WIyWlLk6GJQsqaUBKTNV-1">
          <mxGeometry x="-80" y="3830" width="120" height="50" as="geometry" />
        </mxCell>
        <mxCell id="qFu9IyAaj8nhZ0rDnuPP-65" value="PHP" style="rounded=0;whiteSpace=wrap;html=1;" vertex="1" parent="WIyWlLk6GJQsqaUBKTNV-1">
          <mxGeometry x="-300" y="3745" width="120" height="60" as="geometry" />
        </mxCell>
        <mxCell id="qFu9IyAaj8nhZ0rDnuPP-66" value="" style="shape=flexArrow;endArrow=classic;html=1;rounded=0;" edge="1" parent="WIyWlLk6GJQsqaUBKTNV-1">
          <mxGeometry width="50" height="50" relative="1" as="geometry">
            <mxPoint x="-160" y="3770" as="sourcePoint" />
            <mxPoint x="-100" y="3770" as="targetPoint" />
          </mxGeometry>
        </mxCell>
        <mxCell id="qFu9IyAaj8nhZ0rDnuPP-67" value="" style="rounded=0;whiteSpace=wrap;html=1;" vertex="1" parent="WIyWlLk6GJQsqaUBKTNV-1">
          <mxGeometry x="-105" y="3950" width="345" height="160" as="geometry" />
        </mxCell>
        <mxCell id="qFu9IyAaj8nhZ0rDnuPP-68" value="mp-core" style="text;html=1;strokeColor=none;fillColor=none;align=center;verticalAlign=middle;whiteSpace=wrap;rounded=0;" vertex="1" parent="WIyWlLk6GJQsqaUBKTNV-1">
          <mxGeometry x="35" y="3960" width="60" height="30" as="geometry" />
        </mxCell>
        <mxCell id="qFu9IyAaj8nhZ0rDnuPP-69" value="" style="rounded=0;whiteSpace=wrap;html=1;" vertex="1" parent="WIyWlLk6GJQsqaUBKTNV-1">
          <mxGeometry x="-120" y="4170" width="345" height="190" as="geometry" />
        </mxCell>
        <mxCell id="qFu9IyAaj8nhZ0rDnuPP-70" value="mp-proxy" style="text;html=1;strokeColor=none;fillColor=none;align=center;verticalAlign=middle;whiteSpace=wrap;rounded=0;" vertex="1" parent="WIyWlLk6GJQsqaUBKTNV-1">
          <mxGeometry y="4190" width="60" height="30" as="geometry" />
        </mxCell>
        <mxCell id="qFu9IyAaj8nhZ0rDnuPP-71" value="task" style="rounded=1;whiteSpace=wrap;html=1;" vertex="1" parent="WIyWlLk6GJQsqaUBKTNV-1">
          <mxGeometry x="85" y="3820" width="120" height="50" as="geometry" />
        </mxCell>
        <mxCell id="qFu9IyAaj8nhZ0rDnuPP-72" value="APP" style="rounded=0;whiteSpace=wrap;html=1;" vertex="1" parent="WIyWlLk6GJQsqaUBKTNV-1">
          <mxGeometry x="-300" y="3830" width="120" height="60" as="geometry" />
        </mxCell>
        <mxCell id="qFu9IyAaj8nhZ0rDnuPP-73" value="" style="shape=flexArrow;endArrow=classic;html=1;rounded=0;entryX=0.087;entryY=0.842;entryDx=0;entryDy=0;entryPerimeter=0;" edge="1" parent="WIyWlLk6GJQsqaUBKTNV-1" target="qFu9IyAaj8nhZ0rDnuPP-58">
          <mxGeometry width="50" height="50" relative="1" as="geometry">
            <mxPoint x="-170" y="3860" as="sourcePoint" />
            <mxPoint x="-120" y="3810" as="targetPoint" />
          </mxGeometry>
        </mxCell>
        <mxCell id="qFu9IyAaj8nhZ0rDnuPP-74" value="APP" style="rounded=0;whiteSpace=wrap;html=1;" vertex="1" parent="WIyWlLk6GJQsqaUBKTNV-1">
          <mxGeometry x="-300" y="3990" width="120" height="60" as="geometry" />
        </mxCell>
        <mxCell id="qFu9IyAaj8nhZ0rDnuPP-75" value="" style="shape=flexArrow;endArrow=classic;html=1;rounded=0;" edge="1" parent="WIyWlLk6GJQsqaUBKTNV-1">
          <mxGeometry width="50" height="50" relative="1" as="geometry">
            <mxPoint x="-160" y="4030" as="sourcePoint" />
            <mxPoint x="-110" y="4030" as="targetPoint" />
          </mxGeometry>
        </mxCell>
        <mxCell id="qFu9IyAaj8nhZ0rDnuPP-76" value="tag" style="text;html=1;strokeColor=none;fillColor=none;align=center;verticalAlign=middle;whiteSpace=wrap;rounded=0;" vertex="1" parent="WIyWlLk6GJQsqaUBKTNV-1">
          <mxGeometry y="4280" width="60" height="30" as="geometry" />
        </mxCell>
        <mxCell id="qFu9IyAaj8nhZ0rDnuPP-77" value="" style="shape=flexArrow;endArrow=classic;html=1;rounded=0;" edge="1" parent="WIyWlLk6GJQsqaUBKTNV-1">
          <mxGeometry width="50" height="50" relative="1" as="geometry">
            <mxPoint x="52" y="4120" as="sourcePoint" />
            <mxPoint x="52" y="4163" as="targetPoint" />
          </mxGeometry>
        </mxCell>
        <mxCell id="qFu9IyAaj8nhZ0rDnuPP-78" value="GRPC" style="text;html=1;strokeColor=none;fillColor=none;align=center;verticalAlign=middle;whiteSpace=wrap;rounded=0;" vertex="1" parent="WIyWlLk6GJQsqaUBKTNV-1">
          <mxGeometry x="60" y="4120" width="60" height="30" as="geometry" />
        </mxCell>
        <mxCell id="qFu9IyAaj8nhZ0rDnuPP-79" value="mpsrc&lt;br&gt;api" style="rounded=0;whiteSpace=wrap;html=1;" vertex="1" parent="WIyWlLk6GJQsqaUBKTNV-1">
          <mxGeometry x="320" y="3720" width="120" height="60" as="geometry" />
        </mxCell>
        <mxCell id="qFu9IyAaj8nhZ0rDnuPP-80" value="base materia" style="rounded=0;whiteSpace=wrap;html=1;" vertex="1" parent="WIyWlLk6GJQsqaUBKTNV-1">
          <mxGeometry x="660" y="3720" width="120" height="60" as="geometry" />
        </mxCell>
        <mxCell id="qFu9IyAaj8nhZ0rDnuPP-81" value="mpsrc-creative&lt;br&gt;rpc" style="rounded=0;whiteSpace=wrap;html=1;" vertex="1" parent="WIyWlLk6GJQsqaUBKTNV-1">
          <mxGeometry x="480" y="3720" width="120" height="60" as="geometry" />
        </mxCell>
        <mxCell id="qFu9IyAaj8nhZ0rDnuPP-82" value="task" style="rounded=0;whiteSpace=wrap;html=1;" vertex="1" parent="WIyWlLk6GJQsqaUBKTNV-1">
          <mxGeometry x="660" y="3820" width="120" height="60" as="geometry" />
        </mxCell>
        <mxCell id="qFu9IyAaj8nhZ0rDnuPP-85" value="base" style="rounded=0;whiteSpace=wrap;html=1;fillColor=#fff2cc;strokeColor=#d6b656;" vertex="1" parent="WIyWlLk6GJQsqaUBKTNV-1">
          <mxGeometry x="480" y="3825" width="120" height="60" as="geometry" />
        </mxCell>
        <mxCell id="qFu9IyAaj8nhZ0rDnuPP-94" value="" style="rounded=0;whiteSpace=wrap;html=1;" vertex="1" parent="WIyWlLk6GJQsqaUBKTNV-1">
          <mxGeometry x="310" y="3460" width="345" height="130" as="geometry" />
        </mxCell>
        <mxCell id="qFu9IyAaj8nhZ0rDnuPP-95" value="mpsr" style="rounded=0;whiteSpace=wrap;html=1;" vertex="1" parent="WIyWlLk6GJQsqaUBKTNV-1">
          <mxGeometry x="360" y="3510" width="120" height="60" as="geometry" />
        </mxCell>
        <mxCell id="qFu9IyAaj8nhZ0rDnuPP-96" value="API" style="rounded=0;whiteSpace=wrap;html=1;" vertex="1" parent="WIyWlLk6GJQsqaUBKTNV-1">
          <mxGeometry x="515" y="3480" width="125" height="50" as="geometry" />
        </mxCell>
        <mxCell id="qFu9IyAaj8nhZ0rDnuPP-97" value="POD" style="text;html=1;strokeColor=none;fillColor=none;align=center;verticalAlign=middle;whiteSpace=wrap;rounded=0;" vertex="1" parent="WIyWlLk6GJQsqaUBKTNV-1">
          <mxGeometry x="455" y="3470" width="60" height="30" as="geometry" />
        </mxCell>
        <mxCell id="qFu9IyAaj8nhZ0rDnuPP-98" value="RPC" style="rounded=0;whiteSpace=wrap;html=1;" vertex="1" parent="WIyWlLk6GJQsqaUBKTNV-1">
          <mxGeometry x="515" y="3530" width="125" height="50" as="geometry" />
        </mxCell>
        <mxCell id="qFu9IyAaj8nhZ0rDnuPP-101" value="&lt;h1&gt;mpcore-pnshk yaml&lt;/h1&gt;&lt;p&gt;redis&lt;/p&gt;&lt;p&gt;mysql&lt;/p&gt;&lt;p&gt;&lt;br&gt;&lt;/p&gt;" style="text;html=1;strokeColor=none;fillColor=none;spacing=5;spacingTop=-20;whiteSpace=wrap;overflow=hidden;rounded=0;" vertex="1" parent="WIyWlLk6GJQsqaUBKTNV-1">
          <mxGeometry y="3340" width="310" height="120" as="geometry" />
        </mxCell>
      </root>
    </mxGraphModel>
  </diagram>
</mxfile>
